<?xml version="1.0" encoding="UTF-8" standalone="no"?>
<!-- Created with Inkscape (http://www.inkscape.org/) -->

<svg
   xmlns:dc="http://purl.org/dc/elements/1.1/"
   xmlns:cc="http://creativecommons.org/ns#"
   xmlns:rdf="http://www.w3.org/1999/02/22-rdf-syntax-ns#"
   xmlns:svg="http://www.w3.org/2000/svg"
   xmlns="http://www.w3.org/2000/svg"
   xmlns:sodipodi="http://sodipodi.sourceforge.net/DTD/sodipodi-0.dtd"
   xmlns:inkscape="http://www.inkscape.org/namespaces/inkscape"
   id="svg3045"
   version="1.1"
   inkscape:version="0.48.4 r9939"
   width="390.64182"
   height="361.82629"
   xml:space="preserve"
   sodipodi:docname="chapter3-doubleCage-hierarchie-avant-pstricks.svg"><sodipodi:namedview
     pagecolor="#ffffff"
     bordercolor="#666666"
     borderopacity="1"
     objecttolerance="10"
     gridtolerance="10"
     guidetolerance="10"
     inkscape:pageopacity="0"
     inkscape:pageshadow="2"
     inkscape:window-width="1680"
     inkscape:window-height="950"
     id="namedview3047"
     showgrid="false"
     inkscape:zoom="1.3596917"
     inkscape:cx="317.45134"
     inkscape:cy="238.73219"
     inkscape:window-x="0"
     inkscape:window-y="28"
     inkscape:window-maximized="1"
     inkscape:current-layer="g4333"
     fit-margin-top="0"
     fit-margin-left="0"
     fit-margin-right="0"
     fit-margin-bottom="0" /><metadata
     id="metadata3051"><rdf:RDF><cc:Work
         rdf:about=""><dc:format>image/svg+xml</dc:format><dc:type
           rdf:resource="http://purl.org/dc/dcmitype/StillImage" /><dc:title /></cc:Work></rdf:RDF></metadata><defs
     id="defs3049"><clipPath
       clipPathUnits="userSpaceOnUse"
       id="clipPath3063"><path
         d="M 0,0 612,0 612,792 0,792 0,0 z"
         id="path3065"
         inkscape:connector-curvature="0" /></clipPath></defs><g
     id="g3053"
     inkscape:groupmode="layer"
     inkscape:label="chapter3-doubleCage-hierarchie-avant-pstricks"
     transform="matrix(1.25,0,0,-1.25,0,361.82629)"><g
       id="g3055"
       transform="translate(72,205.71)"><g
         id="g3057"
         transform="translate(-72,-205.71)"><g
           id="g3059"><g
             id="g3061"
             clip-path="url(#clipPath3063)"><g
               id="g3067"
               transform="scale(0.1,0.1)"><path
                 d="m 128.312,124 2515.95,0 0,2515.95 -2515.95,0 0,-2515.95 z"
                 style="fill:none;stroke:#ff6600;stroke-width:93.39969635;stroke-linecap:butt;stroke-linejoin:miter;stroke-miterlimit:10;stroke-opacity:1;stroke-dasharray:none"
                 id="path3069"
                 inkscape:connector-curvature="0" /><path
                 d="m 230.387,2646.33 c 0,-55.03 -44.606,-99.63 -99.629,-99.63 -55.0197,0 -99.6252,44.6 -99.6252,99.63 0,55.02 44.6055,99.62 99.6252,99.62 55.019,0 99.621,-44.59 99.629,-99.61"
                 style="fill:#aa4400;fill-opacity:1;fill-rule:nonzero;stroke:none"
                 id="path3071"
                 inkscape:connector-curvature="0" /><path
                 d="m 230.387,2646.33 c 0,-55.03 -44.606,-99.63 -99.629,-99.63 -55.0197,0 -99.6252,44.6 -99.6252,99.63 0,55.02 44.6055,99.62 99.6252,99.62 55.019,0 99.621,-44.59 99.629,-99.61"
                 style="fill:none;stroke:#000000;stroke-width:62.26649857;stroke-linecap:butt;stroke-linejoin:miter;stroke-miterlimit:10;stroke-opacity:0;stroke-dasharray:none"
                 id="path3073"
                 inkscape:connector-curvature="0" /><path
                 d="m 230.387,130.758 c 0,-55.0197 -44.606,-99.6252 -99.629,-99.6252 -55.0197,0 -99.6252,44.6055 -99.6252,99.6252 0,55.023 44.6055,99.629 99.6252,99.629 55.015,0 99.617,-44.594 99.629,-99.606"
                 style="fill:#aa4400;fill-opacity:1;fill-rule:nonzero;stroke:none"
                 id="path3075"
                 inkscape:connector-curvature="0" /><path
                 d="m 230.387,130.758 c 0,-55.0197 -44.606,-99.6252 -99.629,-99.6252 -55.0197,0 -99.6252,44.6055 -99.6252,99.6252 0,55.023 44.6055,99.629 99.6252,99.629 55.015,0 99.617,-44.594 99.629,-99.606"
                 style="fill:none;stroke:#000000;stroke-width:62.26649857;stroke-linecap:butt;stroke-linejoin:miter;stroke-miterlimit:10;stroke-opacity:0;stroke-dasharray:none"
                 id="path3077"
                 inkscape:connector-curvature="0" /><path
                 d="m 2744.49,2646.33 c 0,-55.03 -44.6,-99.63 -99.62,-99.63 -55.03,0 -99.63,44.6 -99.63,99.63 0,55.02 41.08,99.62 96.1,99.62 55.02,0 103.15,-44.59 103.15,-99.61"
                 style="fill:#aa4400;fill-opacity:1;fill-rule:nonzero;stroke:none"
                 id="path3079"
                 inkscape:connector-curvature="0" /><path
                 d="m 2744.49,2646.33 c 0,-55.03 -44.6,-99.63 -99.62,-99.63 -55.03,0 -99.63,44.6 -99.63,99.63 0,55.02 41.08,99.62 96.1,99.62 55.02,0 103.15,-44.59 103.15,-99.61"
                 style="fill:none;stroke:#000000;stroke-width:62.26649857;stroke-linecap:butt;stroke-linejoin:miter;stroke-miterlimit:10;stroke-opacity:0;stroke-dasharray:none"
                 id="path3081"
                 inkscape:connector-curvature="0" /><path
                 d="m 2744.49,130.758 c 0,-55.0197 -44.6,-99.6252 -99.62,-99.6252 -55.03,0 -99.63,44.6055 -99.63,99.6252 0,55.023 44.6,99.629 99.63,99.629 55.01,0 99.61,-44.594 99.62,-99.606"
                 style="fill:#aa4400;fill-opacity:1;fill-rule:nonzero;stroke:none"
                 id="path3083"
                 inkscape:connector-curvature="0" /><path
                 d="m 2744.49,130.758 c 0,-55.0197 -44.6,-99.6252 -99.62,-99.6252 -55.03,0 -99.63,44.6055 -99.63,99.6252 0,55.023 44.6,99.629 99.63,99.629 55.01,0 99.61,-44.594 99.62,-99.606"
                 style="fill:none;stroke:#000000;stroke-width:62.26649857;stroke-linecap:butt;stroke-linejoin:miter;stroke-miterlimit:10;stroke-opacity:0;stroke-dasharray:none"
                 id="path3085"
                 inkscape:connector-curvature="0" /><path
                 d="m 740.23,738.367 1293.6,0 0,1293.6 -1293.6,0 0,-1293.6 z"
                 style="fill:none;stroke:#37abc8;stroke-width:93.39969635;stroke-linecap:butt;stroke-linejoin:miter;stroke-miterlimit:10;stroke-opacity:1;stroke-dasharray:none"
                 id="path3087"
                 inkscape:connector-curvature="0" /><path
                 d="m 2133.77,2035.25 c 0,-55.03 -44.61,-99.63 -99.63,-99.63 -55.02,0 -99.62,44.6 -99.62,99.63 0,55.02 44.6,99.62 99.62,99.62 55.02,0 99.63,-44.6 99.63,-99.62"
                 style="fill:#0044aa;fill-opacity:1;fill-rule:nonzero;stroke:none"
                 id="path3089"
                 inkscape:connector-curvature="0" /><path
                 d="m 2133.77,2035.25 c 0,-55.03 -44.61,-99.63 -99.63,-99.63 -55.02,0 -99.62,44.6 -99.62,99.63 0,55.02 44.6,99.62 99.62,99.62 55.02,0 99.63,-44.6 99.63,-99.62 z"
                 style="fill:none;stroke:#000000;stroke-width:93.39969635;stroke-linecap:butt;stroke-linejoin:miter;stroke-miterlimit:10;stroke-opacity:0;stroke-dasharray:none"
                 id="path3091"
                 inkscape:connector-curvature="0" /><path
                 d="m 841.113,2035.25 c 0,-55.03 -44.605,-99.63 -99.625,-99.63 -55.023,0 -99.629,44.6 -99.629,99.63 0,55.02 44.606,99.62 99.629,99.62 55.016,0 99.617,-44.6 99.625,-99.62"
                 style="fill:#0044aa;fill-opacity:1;fill-rule:nonzero;stroke:none"
                 id="path3093"
                 inkscape:connector-curvature="0" /><path
                 d="m 841.113,2035.25 c 0,-55.03 -44.605,-99.63 -99.625,-99.63 -55.023,0 -99.629,44.6 -99.629,99.63 0,55.02 44.606,99.62 99.629,99.62 55.016,0 99.617,-44.6 99.625,-99.62"
                 style="fill:none;stroke:#000000;stroke-width:93.39969635;stroke-linecap:butt;stroke-linejoin:miter;stroke-miterlimit:10;stroke-opacity:0;stroke-dasharray:none"
                 id="path3095"
                 inkscape:connector-curvature="0" /><path
                 d="m 838.625,740.102 c 0,-55.024 -44.605,-99.625 -99.629,-99.625 -55.019,0 -99.625,44.601 -99.625,99.625 0,55.023 44.606,99.625 99.625,99.625 55.02,0 99.621,-44.598 99.629,-99.614"
                 style="fill:#0044aa;fill-opacity:1;fill-rule:nonzero;stroke:none"
                 id="path3097"
                 inkscape:connector-curvature="0" /><path
                 d="m 838.625,740.102 c 0,-55.024 -44.605,-99.625 -99.629,-99.625 -55.019,0 -99.625,44.601 -99.625,99.625 0,55.023 44.606,99.625 99.625,99.625 55.02,0 99.621,-44.598 99.629,-99.614"
                 style="fill:none;stroke:#000000;stroke-width:93.39969635;stroke-linecap:butt;stroke-linejoin:miter;stroke-miterlimit:10;stroke-opacity:0;stroke-dasharray:none"
                 id="path3099"
                 inkscape:connector-curvature="0" /><path
                 d="m 2133.77,741.84 c 0,-55.02 -44.61,-99.625 -99.63,-99.625 -55.02,0 -99.62,44.605 -99.62,99.625 0,55.023 44.6,99.629 99.62,99.629 55.02,0 99.62,-44.598 99.63,-99.617"
                 style="fill:#0044aa;fill-opacity:1;fill-rule:nonzero;stroke:none"
                 id="path3101"
                 inkscape:connector-curvature="0" /><path
                 d="m 2133.77,741.84 c 0,-55.02 -44.61,-99.625 -99.63,-99.625 -55.02,0 -99.62,44.605 -99.62,99.625 0,55.023 44.6,99.629 99.62,99.629 55.02,0 99.62,-44.598 99.63,-99.617"
                 style="fill:none;stroke:#000000;stroke-width:93.39969635;stroke-linecap:butt;stroke-linejoin:miter;stroke-miterlimit:10;stroke-opacity:0;stroke-dasharray:none"
                 id="path3103"
                 inkscape:connector-curvature="0" /><path
                 d="m 2053.3,2057.09 497.46,498.61"
                 style="fill:none;stroke:#000000;stroke-width:23.1644001;stroke-linecap:butt;stroke-linejoin:miter;stroke-miterlimit:10;stroke-opacity:1;stroke-dasharray:none"
                 id="path3105"
                 inkscape:connector-curvature="0" /><path
                 d="m 2626.28,2631.4 -47.62,-178.92 -131.19,130.88 178.81,48.04"
                 style="fill:#000000;fill-opacity:1;fill-rule:nonzero;stroke:none"
                 id="path3107"
                 inkscape:connector-curvature="0" /><path
                 d="m 2626.28,2631.4 -47.62,-178.92 -131.19,130.88 178.81,48.04 z"
                 style="fill:none;stroke:#000000;stroke-width:23.1644001;stroke-linecap:butt;stroke-linejoin:miter;stroke-miterlimit:10;stroke-opacity:1;stroke-dasharray:none"
                 id="path3109"
                 inkscape:connector-curvature="0" /><path
                 d="m 2031.76,2035.49 534.86,536.12"
                 style="fill:none;stroke:#000000;stroke-width:74.71980286;stroke-linecap:butt;stroke-linejoin:miter;stroke-miterlimit:10;stroke-opacity:1;stroke-dasharray:none"
                 id="path3111"
                 inkscape:connector-curvature="0" /></g></g></g></g></g><text
       xml:space="preserve"
       style="font-size:24px;font-style:normal;font-variant:normal;font-weight:500;font-stretch:normal;line-height:125%;letter-spacing:0px;word-spacing:0px;fill:#000000;fill-opacity:1;stroke:none;font-family:CMU Serif;-inkscape-font-specification:CMU Serif Medium"
       x="178.42377"
       y="-179.70775"
       id="text3113-4"
       sodipodi:linespacing="125%"
       transform="scale(1,-1)"><tspan
         sodipodi:role="line"
         x="178.42377"
         y="-179.70775"
         id="tspan3117-0"
         style="font-style:normal;font-variant:normal;font-weight:bold;font-stretch:normal;font-family:CMU Serif;-inkscape-font-specification:CMU Serif Bold" /></text>
<g
       transform="matrix(1,0,0,-1,-383.71558,275.37082)"
       id="g4106"><g
         style="font-style:normal;font-variant:normal;font-weight:normal;font-stretch:normal;letter-spacing:normal;word-spacing:normal;text-anchor:start;fill:none;stroke:#000000;stroke-linecap:butt;stroke-linejoin:miter;stroke-miterlimit:10.43299961;stroke-opacity:1;stroke-dasharray:none;stroke-dashoffset:0"
         id="content"
         transform="matrix(0.5211628,0,0,-0.5211628,-91.20349,274.97241)"
         xml:space="preserve"
         stroke-miterlimit="10.433"
         font-style="normal"
         font-variant="normal"
         font-weight="normal"
         font-stretch="normal"
         font-size-adjust="none"
         letter-spacing="normal"
         word-spacing="normal"><path
           style="fill:#000000;stroke-width:0"
           inkscape:connector-curvature="0"
           d="m 1217.6,364.97 -0.1,0.13 0,0.12 0,0.12 0,0.11 0,0.12 0,0.11 0,0.11 0,0.1 0,0.21 -0.1,0.19 0,0.19 -0.1,0.17 0,0.17 -0.1,0.15 0,0.15 -0.1,0.14 -0.1,0.13 -0.1,0.12 0,0.11 -0.1,0.1 -0.1,0.1 -0.1,0.09 -0.1,0.08 -0.1,0.07 0,0.07 -0.1,0.06 -0.1,0.05 -0.1,0.05 -0.1,0.04 -0.1,0.04 -0.1,0.02 -0.1,0.03 -0.1,0.02 -0.1,0.01 -0.1,0 0,0.01 c -1.3,0 -2.5,-1.3 -2.5,-2.39 0,-0.64 0.3,-0.94 0.8,-1.49 1.1,-1 1.7,-2.29 1.7,-4.09 0,-2.1 -3,-13.5 -8.8,-13.5 -2.6,0 -3.7,1.75 -3.7,4.33 0,2.79 1.3,6.43 2.9,10.56 0.3,0.86 0.5,1.55 0.5,2.5 0,2.23 -1.5,4.08 -4.1,4.08 -4.6,0 -6.5,-7.22 -6.5,-7.67 0,-0.5 0.5,-0.5 0.6,-0.5 0.5,0 0.5,0.1 0.8,0.9 1.4,5.03 3.6,6.17 5,6.17 0.4,0 1.3,0 1.3,-1.59 0,-1.25 -0.5,-2.59 -0.9,-3.48 -2.2,-5.79 -2.8,-8.08 -2.8,-10.22 0,-5.38 4.4,-6.18 6.6,-6.18 8.4,0 11.3,16.49 11.3,19.08 z"
           id="path4109" /><path
           style="fill:#000000;stroke-width:0"
           inkscape:connector-curvature="0"
           d="m 1233.6,352.22 -0.1,-0.02 -0.1,-0.02 -0.1,-0.03 -0.1,-0.04 -0.1,-0.04 -0.1,-0.04 -0.1,-0.04 -0.1,-0.05 -0.1,-0.05 -0.1,-0.06 0,-0.05 -0.1,-0.06 -0.1,-0.06 0,-0.07 -0.1,-0.06 0,-0.07 -0.1,-0.07 0,-0.07 -0.1,-0.08 0,-0.07 -0.1,-0.07 0,-0.08 0,-0.07 -0.1,-0.08 0,-0.08 0,-0.07 0,-0.08 0,-0.07 0,-0.08 -0.1,-0.07 0,-0.08 0,-0.07 c 0,-0.94 0.8,-1.28 1.4,-1.28 0.8,0 2,0.55 2,2.22 0,2.37 -2.7,3.03 -4.6,3.03 -5.2,0 -10.1,-4.8 -10.1,-9.64 0,-3 2.1,-6.06 6.5,-6.06 5.9,0 8.6,3.43 8.6,3.93 0,0.21 -0.3,0.6 -0.6,0.6 -0.2,0 -0.3,-0.08 -0.6,-0.36 -2.7,-3.21 -6.7,-3.21 -7.4,-3.21 -2.5,0 -3.6,1.71 -3.6,3.88 0,1 0.5,4.8 2.3,7.2 1.3,1.72 3.1,2.69 4.9,2.69 0.5,0 2.2,-0.06 3,-1.05 z"
           id="path4111" /><path
           style="fill:#000000;stroke-width:0"
           inkscape:connector-curvature="0"
           d="m 1244.7,352.64 h 3.5 c 0.7,0 1.1,0 1.1,0.77 0,0.48 -0.4,0.48 -1,0.48 h -3.3 l 1.3,5.16 c 0,0.17 0.1,0.34 0.1,0.49 0,0.64 -0.5,1.12 -1.2,1.12 -0.9,0 -1.4,-0.59 -1.6,-1.5 -0.3,-0.87 0.2,0.8 -1.4,-5.27 h -3.5 c -0.7,0 -1.1,0 -1.1,-0.76 0,-0.49 0.4,-0.49 1,-0.49 h 3.3 l -2,-8.21 c -0.2,-0.88 -0.6,-2.13 -0.6,-2.58 0,-2.06 1.8,-3.31 3.8,-3.31 3.9,0 6.1,4.87 6.1,5.32 0,0.46 -0.5,0.46 -0.6,0.46 -0.4,0 -0.5,-0.08 -0.7,-0.66 -1,-2.2 -2.8,-4.16 -4.7,-4.16 -0.7,0 -1.2,0.46 -1.2,1.71 0,0.36 0.1,1.09 0.2,1.43 z"
           id="path4113" /><path
           style="fill:#000000;stroke-width:0"
           inkscape:connector-curvature="0"
           d="m 1259.3,345.91 0,0.01 0,0.02 0,0.02 0,0.02 0,0.03 0,0.03 0,0.04 0,0.04 0.1,0.04 0,0.04 0,0.05 0,0.05 0,0.06 0,0.05 0.1,0.12 0,0.13 0,0.13 0.1,0.14 0,0.15 0,0.15 0.1,0.15 0,0.31 0.1,0.31 0.1,0.16 0,0.15 0,0.14 0.1,0.14 0,0.13 0,0.13 0.1,0.11 0,0.06 0,0.05 0,0.05 0,0.05 0,0.04 0.1,0.04 0,0.04 0,0.03 0,0.03 0,0.03 0,0.02 0,0.02 0,0.01 0,0.01 c 0.1,0.28 1.1,2.02 2.2,2.86 0.4,0.27 1.3,0.97 2.8,0.97 0.4,0 1.2,-0.03 2,-0.48 -1.2,-0.32 -1.6,-1.3 -1.6,-1.93 0,-0.76 0.6,-1.28 1.4,-1.28 0.8,0 2,0.66 2,2.13 0,1.81 -2,2.53 -3.7,2.53 -1.9,0 -3.4,-0.72 -5,-2.47 -0.6,2.12 -2.7,2.47 -3.5,2.47 -1.3,0 -2.2,-0.8 -2.8,-1.77 -0.8,-1.36 -1.2,-3.39 -1.2,-3.56 0,-0.45 0.4,-0.45 0.5,-0.45 0.5,0 0.6,0.11 0.8,1.04 0.5,2.13 1.2,3.77 2.6,3.77 0.9,0 1.1,-0.77 1.1,-1.7 0,-0.68 -0.3,-1.96 -0.6,-2.89 -0.2,-0.96 -0.5,-2.38 -0.7,-3.14 l -1.1,-4.47 c -0.2,-0.44 -0.4,-1.32 -0.4,-1.43 0,-0.76 0.7,-1.1 1.2,-1.1 0.5,0 1.2,0.31 1.5,1 0.1,0.21 0.5,1.75 0.7,2.62 z"
           id="path4115" /><path
           style="fill:#000000;stroke-width:0"
           inkscape:connector-curvature="0"
           d="m 1280.5,362.02 0,0 0,0.01 0,0 0,0.01 0,0 0,0.01 0,0 0,0.01 0,0.01 0,0 0,0.02 0,0.02 0,0.02 0,0.02 0.1,0.02 0,0.02 0,0.02 0,0.02 0,0.03 0,0.04 0,0.03 0,0.02 0,0.02 0,0.03 0,0.02 0,0.02 0,0.02 0,0.02 0,0.01 0,0.02 0,0.01 0,0 0,0.01 0,0.01 0,0 0,0.01 0,0 0,0.01 0,0 0,0 0,0 0,0.01 c 0,0.18 -0.1,0.5 -0.5,0.5 -0.7,0 -3.6,-0.28 -4.5,-0.36 -0.2,-0.03 -0.7,-0.07 -0.7,-0.8 0,-0.48 0.5,-0.48 0.9,-0.48 1.6,0 1.6,-0.25 1.6,-0.54 0,-0.23 0,-0.45 -0.1,-0.76 l -4.3,-17.2 c -0.1,-0.36 -0.2,-0.74 -0.2,-1.08 0,-2.24 2,-3.31 3.7,-3.31 0.8,0 1.9,0.28 2.8,1.84 0.7,1.28 1.2,3.34 1.2,3.48 0,0.46 -0.4,0.46 -0.6,0.46 -0.4,0 -0.5,-0.21 -0.7,-0.85 -0.4,-1.73 -1.1,-3.97 -2.6,-3.97 -0.9,0 -1.1,0.88 -1.1,1.71 0,0.39 0.1,1.04 0.2,1.43 z"
           id="path4117" /></g></g><g
       transform="matrix(1,0,0,-1,-263.16298,372.4058)"
       id="g4221"><g
         style="font-style:normal;font-variant:normal;font-weight:normal;font-stretch:normal;letter-spacing:normal;word-spacing:normal;text-anchor:start;fill:none;stroke:#000000;stroke-linecap:butt;stroke-linejoin:miter;stroke-miterlimit:10.43299961;stroke-opacity:1;stroke-dasharray:none;stroke-dashoffset:0"
         word-spacing="normal"
         letter-spacing="normal"
         font-size-adjust="none"
         font-stretch="normal"
         font-weight="normal"
         font-variant="normal"
         font-style="normal"
         stroke-miterlimit="10.433"
         xml:space="preserve"
         transform="matrix(0.5211628,0,0,-0.5211628,-91.20349,274.97241)"
         id="g4223"><path
           style="fill:#000000;stroke-width:0"
           inkscape:connector-curvature="0"
           id="path4225"
           d="m 1219.1,364.97 0,0.13 0,0.12 0,0.12 0,0.11 0,0.12 0,0.11 0,0.11 0,0.1 -0.1,0.21 0,0.19 -0.1,0.19 0,0.17 -0.1,0.17 0,0.15 -0.1,0.15 0,0.14 -0.1,0.13 -0.1,0.12 -0.1,0.11 0,0.1 -0.1,0.1 -0.1,0.09 -0.1,0.08 -0.1,0.07 -0.1,0.07 -0.1,0.06 -0.1,0.05 -0.1,0.05 0,0.04 -0.1,0.04 -0.1,0.02 -0.1,0.03 -0.1,0.02 -0.1,0.01 -0.1,0 -0.1,0.01 c -1.2,0 -2.4,-1.3 -2.4,-2.39 0,-0.64 0.2,-0.94 0.8,-1.49 1,-1 1.7,-2.29 1.7,-4.09 0,-2.1 -3.1,-13.5 -8.9,-13.5 -2.5,0 -3.7,1.75 -3.7,4.33 0,2.79 1.4,6.43 2.9,10.56 0.4,0.86 0.6,1.55 0.6,2.5 0,2.23 -1.6,4.08 -4.1,4.08 -4.7,0 -6.6,-7.22 -6.6,-7.67 0,-0.5 0.5,-0.5 0.6,-0.5 0.5,0 0.6,0.1 0.8,0.9 1.5,5.03 3.6,6.17 5.1,6.17 0.4,0 1.2,0 1.2,-1.59 0,-1.25 -0.5,-2.59 -0.8,-3.48 -2.2,-5.79 -2.9,-8.08 -2.9,-10.22 0,-5.38 4.4,-6.18 6.7,-6.18 8.4,0 11.2,16.49 11.2,19.08 z" /><path
           style="fill:#000000;stroke-width:0"
           inkscape:connector-curvature="0"
           id="path4227"
           d="m 1231.2,360.66 0,0.05 0,0.06 0,0.05 0,0.05 0,0.06 0,0.06 0,0.05 -0.1,0.06 0,0.05 0,0.06 0,0.06 -0.1,0.05 0,0.05 0,0.06 -0.1,0.05 0,0.05 -0.1,0.05 0,0.04 -0.1,0.05 0,0.04 -0.1,0.04 0,0.04 -0.1,0.04 -0.1,0.03 0,0.03 -0.1,0.02 -0.1,0.02 0,0.02 -0.1,0.02 -0.1,0.01 -0.1,0.01 -0.1,0 c -0.9,0 -1.9,-0.91 -1.9,-1.92 0,-0.6 0.4,-1.33 1.4,-1.33 1,0 1.9,0.98 1.9,1.92 z" /><path
           style="fill:#000000;stroke-width:0"
           inkscape:connector-curvature="0"
           id="path4229"
           d="m 1224.1,342.96 0,-0.17 -0.1,-0.17 0,-0.08 0,-0.09 -0.1,-0.09 0,-0.08 0,-0.09 0,-0.1 -0.1,-0.09 0,-0.1 0,-0.09 0,-0.06 0,-0.05 0,-0.05 0,-0.05 0,-0.06 0,-0.05 c 0,-1.64 1.4,-2.95 3.3,-2.95 3.5,0 5,4.79 5,5.32 0,0.46 -0.4,0.46 -0.5,0.46 -0.5,0 -0.6,-0.21 -0.7,-0.6 -0.8,-2.78 -2.3,-4.22 -3.7,-4.22 -0.7,0 -0.9,0.46 -0.9,1.22 0,0.8 0.3,1.47 0.6,2.24 0.3,0.93 0.7,1.87 1.1,2.78 0.3,0.84 1.6,4.01 1.7,4.44 0.1,0.34 0.2,0.76 0.2,1.11 0,1.64 -1.4,2.95 -3.3,2.95 -3.4,0 -5,-4.74 -5,-5.33 0,-0.45 0.5,-0.45 0.6,-0.45 0.4,0 0.5,0.17 0.6,0.56 0.9,3 2.4,4.25 3.7,4.25 0.6,0 0.9,-0.28 0.9,-1.22 0,-0.8 -0.2,-1.33 -1.1,-3.48 z" /><path
           style="fill:#000000;stroke-width:0"
           inkscape:connector-curvature="0"
           id="path4231"
           d="m 1238.2,341.07 0,-0.05 0,-0.04 0,-0.05 0,-0.05 -0.1,-0.05 0,-0.05 0,-0.05 0,-0.06 0,-0.11 -0.1,-0.11 0,-0.11 0,-0.11 0,-0.05 0,-0.05 0,-0.05 -0.1,-0.05 0,-0.05 0,-0.05 0,-0.04 0,-0.04 0,-0.04 0,-0.03 0,-0.03 0,-0.03 0,-0.03 0,-0.02 0,0 0,-0.01 0,-0.01 0,-0.01 c 0,-0.76 0.6,-1.1 1.2,-1.1 0.6,0 1.1,0.45 1.3,0.76 0.2,0.31 0.5,1.42 0.6,2.16 0.2,0.65 0.6,2.26 0.8,3.14 0.2,0.76 0.4,1.53 0.6,2.33 0.4,1.43 0.4,1.7 1.4,3.14 1,1.39 2.7,3.2 5.3,3.2 2,0 2,-1.78 2,-2.44 0,-2.09 -1.4,-5.95 -2,-7.42 -0.4,-0.98 -0.5,-1.3 -0.5,-1.89 0,-1.84 1.5,-2.98 3.3,-2.98 3.4,0 5,4.79 5,5.32 0,0.46 -0.5,0.46 -0.6,0.46 -0.5,0 -0.5,-0.21 -0.6,-0.6 -0.8,-2.78 -2.3,-4.22 -3.7,-4.22 -0.8,0 -0.9,0.49 -0.9,1.22 0,0.8 0.2,1.25 0.8,2.83 0.4,1.08 1.9,4.77 1.9,6.72 0,3.39 -2.7,3.97 -4.6,3.97 -2.9,0 -4.8,-1.77 -5.9,-3.16 -0.2,2.39 -2.3,3.16 -3.7,3.16 -1.5,0 -2.3,-1.08 -2.8,-1.88 -0.7,-1.28 -1.2,-3.28 -1.2,-3.45 0,-0.45 0.5,-0.45 0.6,-0.45 0.5,0 0.5,0.11 0.8,1.04 0.5,2.07 1.2,3.77 2.5,3.77 0.9,0 1.2,-0.77 1.2,-1.7 0,-0.68 -0.4,-1.96 -0.6,-2.89 -0.3,-0.96 -0.6,-2.38 -0.8,-3.14 z" /><path
           style="fill:#000000;stroke-width:0"
           inkscape:connector-curvature="0"
           id="path4233"
           d="m 1272.8,352.64 h 3.4 c 0.7,0 1.1,0 1.1,0.77 0,0.48 -0.4,0.48 -1.1,0.48 h -3.2 c 0.8,4.43 1.1,6.04 1.3,7.05 0.2,0.77 1,1.5 1.8,1.5 0.1,0 1,0 1.7,-0.42 -1.5,-0.45 -1.6,-1.72 -1.6,-1.92 0,-0.77 0.6,-1.28 1.4,-1.28 1,0 2,0.79 2,2.12 0,1.6 -1.7,2.47 -3.5,2.47 -1.5,0 -3.2,-0.87 -4.2,-2.61 -0.7,-1.3 -0.9,-2.86 -1.7,-6.91 h -2.7 c -0.7,0 -1.2,0 -1.2,-0.76 0,-0.49 0.5,-0.49 1.1,-0.49 h 2.6 c -0.1,-0.21 -2.2,-12.75 -3.1,-16.48 -0.1,-0.77 -0.7,-3.41 -2.4,-3.41 -0.1,0 -0.9,0 -1.6,0.41 1.5,0.45 1.6,1.72 1.6,1.92 0,0.77 -0.6,1.28 -1.4,1.28 -0.9,0 -2,-0.79 -2,-2.12 0,-1.56 1.7,-2.47 3.4,-2.47 2.2,0 3.7,2.3 4.2,3.06 1.2,2.35 2,6.63 2.1,7.05 z" /></g></g><g
       transform="matrix(1,0,0,-1,-336.99372,327.27521)"
       id="g4333"><g
         id="g4441"><g
           word-spacing="normal"
           letter-spacing="normal"
           font-size-adjust="none"
           font-stretch="normal"
           font-weight="normal"
           font-variant="normal"
           font-style="normal"
           stroke-miterlimit="10.433"
           xml:space="preserve"
           transform="matrix(0.5211628,0,0,-0.5211628,-91.20349,274.97241)"
           id="g4443"
           style="font-style:normal;font-variant:normal;font-weight:normal;font-stretch:normal;letter-spacing:normal;word-spacing:normal;text-anchor:start;fill:none;stroke:#000000;stroke-linecap:butt;stroke-linejoin:miter;stroke-miterlimit:10.43299961;stroke-opacity:1;stroke-dasharray:none;stroke-dashoffset:0"><path
             id="path4445"
             d="m 1248.1,379.25 0.1,0 0.2,0.01 0.1,0 0.1,0 0.1,0.01 0.1,0.01 0,0 0.1,0.01 0.1,0.02 0.1,0.01 0,0.02 0.1,0.02 0.1,0.02 0,0.02 0.1,0.03 0,0.03 0.1,0.04 0,0.04 0.1,0.04 0,0.05 0.1,0.05 0,0.02 0,0.03 0,0.03 0,0.03 0,0.03 0.1,0.03 0,0.04 0,0.03 0,0.04 0,0.04 0,0.04 0,0.04 0,0.04 0,0.04 0,0.05 0,0.04 c 0,1 -0.9,1 -1.7,1 h -27 c -0.8,0 -1.7,0 -1.7,-1 0,-1 0.9,-1 1.7,-1 z"
             inkscape:connector-curvature="0"
             style="fill:#000000;stroke-width:0" /><path
             id="path4447"
             d="m 1256.8,379.25 -0.3,-0.19 -0.2,-0.2 -0.2,-0.19 -0.3,-0.2 -0.2,-0.19 -0.2,-0.19 -0.2,-0.19 -0.2,-0.18 -0.2,-0.19 -0.2,-0.18 -0.2,-0.18 -0.1,-0.18 -0.2,-0.17 -0.1,-0.17 -0.2,-0.16 -0.1,-0.17 -0.2,-0.15 -0.1,-0.16 -0.1,-0.14 -0.1,-0.15 -0.1,-0.14 -0.1,-0.13 -0.1,-0.13 -0.1,-0.12 -0.1,-0.11 -0.1,-0.11 0,-0.1 -0.1,-0.1 -0.1,-0.09 0,-0.08 -0.1,-0.07 0,-0.07 c -2.2,-3.43 -2.6,-6.58 -2.6,-6.62 0,-0.6 0.6,-0.6 1,-0.6 0.8,0 0.9,0.1 1.1,1 1.1,4.88 4,9.07 9.7,11.36 0.6,0.19 0.7,0.3 0.7,0.64 0,0.35 -0.3,0.5 -0.4,0.55 -2.2,0.84 -8.2,3.34 -10.1,11.72 -0.1,0.59 -0.2,0.73 -1,0.73 -0.4,0 -1,0 -1,-0.59 0,-0.09 0.4,-3.23 2.5,-6.58 1,-1.48 2.4,-3.23 4.6,-4.83 h -37 c -0.9,0 -1.8,0 -1.8,-1 0,-1 0.9,-1 1.8,-1 z"
             inkscape:connector-curvature="0"
             style="fill:#000000;stroke-width:0" /><path
             id="path4449"
             d="m 1250.4,364.97 0,0.13 0,0.12 0,0.12 0,0.11 0,0.12 0,0.11 0,0.11 0,0.1 -0.1,0.21 0,0.19 0,0.19 -0.1,0.17 0,0.17 -0.1,0.15 -0.1,0.15 0,0.14 -0.1,0.13 -0.1,0.12 0,0.11 -0.1,0.1 -0.1,0.1 -0.1,0.09 -0.1,0.08 -0.1,0.07 -0.1,0.07 0,0.06 -0.1,0.05 -0.1,0.05 -0.1,0.04 -0.1,0.04 -0.1,0.02 -0.1,0.03 -0.1,0.02 -0.1,0.01 -0.1,0 -0.1,0.01 c -1.2,0 -2.4,-1.3 -2.4,-2.39 0,-0.64 0.3,-0.94 0.8,-1.49 1.1,-1 1.7,-2.29 1.7,-4.09 0,-2.1 -3,-13.5 -8.9,-13.5 -2.5,0 -3.6,1.75 -3.6,4.33 0,2.79 1.3,6.43 2.8,10.56 0.4,0.86 0.6,1.55 0.6,2.5 0,2.23 -1.6,4.08 -4.1,4.08 -4.6,0 -6.5,-7.22 -6.5,-7.67 0,-0.5 0.5,-0.5 0.6,-0.5 0.5,0 0.5,0.1 0.8,0.9 1.4,5.03 3.5,6.17 5,6.17 0.4,0 1.2,0 1.2,-1.59 0,-1.25 -0.4,-2.59 -0.8,-3.48 -2.2,-5.79 -2.8,-8.08 -2.8,-10.22 0,-5.38 4.3,-6.18 6.6,-6.18 8.4,0 11.2,16.49 11.2,19.08 z"
             inkscape:connector-curvature="0"
             style="fill:#000000;stroke-width:0" /></g></g></g></g></svg>