<?xml version="1.0" encoding="UTF-8" standalone="no"?>
<!-- Created with Inkscape (http://www.inkscape.org/) -->

<svg
   xmlns:dc="http://purl.org/dc/elements/1.1/"
   xmlns:cc="http://creativecommons.org/ns#"
   xmlns:rdf="http://www.w3.org/1999/02/22-rdf-syntax-ns#"
   xmlns:svg="http://www.w3.org/2000/svg"
   xmlns="http://www.w3.org/2000/svg"
   xmlns:sodipodi="http://sodipodi.sourceforge.net/DTD/sodipodi-0.dtd"
   xmlns:inkscape="http://www.inkscape.org/namespaces/inkscape"
   id="svg3045"
   version="1.1"
   inkscape:version="0.48.4 r9939"
   width="366.62988"
   height="364.81396"
   xml:space="preserve"
   sodipodi:docname="chapter3-doubleCage-hierarchie-avant-pstricks.pdf"><metadata
     id="metadata3051"><rdf:RDF><cc:Work
         rdf:about=""><dc:format>image/svg+xml</dc:format><dc:type
           rdf:resource="http://purl.org/dc/dcmitype/StillImage" /><dc:title></dc:title></cc:Work></rdf:RDF></metadata><defs
     id="defs3049"><clipPath
       clipPathUnits="userSpaceOnUse"
       id="clipPath3063"><path
         d="M 0,0 612,0 612,792 0,792 0,0 z"
         id="path3065"
         inkscape:connector-curvature="0" /></clipPath></defs><sodipodi:namedview
     pagecolor="#ffffff"
     bordercolor="#666666"
     borderopacity="1"
     objecttolerance="10"
     gridtolerance="10"
     guidetolerance="10"
     inkscape:pageopacity="0"
     inkscape:pageshadow="2"
     inkscape:window-width="1920"
     inkscape:window-height="980"
     id="namedview3047"
     showgrid="false"
     inkscape:zoom="1.3596917"
     inkscape:cx="335.88401"
     inkscape:cy="174.8464"
     inkscape:window-x="0"
     inkscape:window-y="28"
     inkscape:window-maximized="1"
     inkscape:current-layer="g3053"
     fit-margin-top="0"
     fit-margin-left="0"
     fit-margin-right="0"
     fit-margin-bottom="0" /><g
     id="g3053"
     inkscape:groupmode="layer"
     inkscape:label="chapter3-doubleCage-hierarchie-avant-pstricks"
     transform="matrix(1.25,0,0,-1.25,0,364.81396)"><g
       id="g3055"
       transform="translate(72,205.71)"><g
         id="g3057"
         transform="translate(-72,-205.71)"><g
           id="g3059"><g
             id="g3061"
             clip-path="url(#clipPath3063)"><g
               id="g3067"
               transform="scale(0.1,0.1)"><path
                 d="m 128.312,124 2515.95,0 0,2515.95 -2515.95,0 0,-2515.95 z"
                 style="fill:none;stroke:#ff6600;stroke-width:93.39969635;stroke-linecap:butt;stroke-linejoin:miter;stroke-miterlimit:10;stroke-opacity:1;stroke-dasharray:none"
                 id="path3069"
                 inkscape:connector-curvature="0" /><path
                 d="m 230.387,2646.33 c 0,-55.03 -44.606,-99.63 -99.629,-99.63 -55.0197,0 -99.6252,44.6 -99.6252,99.63 0,55.02 44.6055,99.62 99.6252,99.62 55.019,0 99.621,-44.59 99.629,-99.61"
                 style="fill:#aa4400;fill-opacity:1;fill-rule:nonzero;stroke:none"
                 id="path3071"
                 inkscape:connector-curvature="0" /><path
                 d="m 230.387,2646.33 c 0,-55.03 -44.606,-99.63 -99.629,-99.63 -55.0197,0 -99.6252,44.6 -99.6252,99.63 0,55.02 44.6055,99.62 99.6252,99.62 55.019,0 99.621,-44.59 99.629,-99.61"
                 style="fill:none;stroke:#000000;stroke-width:62.26649857;stroke-linecap:butt;stroke-linejoin:miter;stroke-miterlimit:10;stroke-opacity:0;stroke-dasharray:none"
                 id="path3073"
                 inkscape:connector-curvature="0" /><path
                 d="m 230.387,130.758 c 0,-55.0197 -44.606,-99.6252 -99.629,-99.6252 -55.0197,0 -99.6252,44.6055 -99.6252,99.6252 0,55.023 44.6055,99.629 99.6252,99.629 55.015,0 99.617,-44.594 99.629,-99.606"
                 style="fill:#aa4400;fill-opacity:1;fill-rule:nonzero;stroke:none"
                 id="path3075"
                 inkscape:connector-curvature="0" /><path
                 d="m 230.387,130.758 c 0,-55.0197 -44.606,-99.6252 -99.629,-99.6252 -55.0197,0 -99.6252,44.6055 -99.6252,99.6252 0,55.023 44.6055,99.629 99.6252,99.629 55.015,0 99.617,-44.594 99.629,-99.606"
                 style="fill:none;stroke:#000000;stroke-width:62.26649857;stroke-linecap:butt;stroke-linejoin:miter;stroke-miterlimit:10;stroke-opacity:0;stroke-dasharray:none"
                 id="path3077"
                 inkscape:connector-curvature="0" /><path
                 d="m 2744.49,2646.33 c 0,-55.03 -44.6,-99.63 -99.62,-99.63 -55.03,0 -99.63,44.6 -99.63,99.63 0,55.02 41.08,99.62 96.1,99.62 55.02,0 103.15,-44.59 103.15,-99.61"
                 style="fill:#aa4400;fill-opacity:1;fill-rule:nonzero;stroke:none"
                 id="path3079"
                 inkscape:connector-curvature="0" /><path
                 d="m 2744.49,2646.33 c 0,-55.03 -44.6,-99.63 -99.62,-99.63 -55.03,0 -99.63,44.6 -99.63,99.63 0,55.02 41.08,99.62 96.1,99.62 55.02,0 103.15,-44.59 103.15,-99.61"
                 style="fill:none;stroke:#000000;stroke-width:62.26649857;stroke-linecap:butt;stroke-linejoin:miter;stroke-miterlimit:10;stroke-opacity:0;stroke-dasharray:none"
                 id="path3081"
                 inkscape:connector-curvature="0" /><path
                 d="m 2744.49,130.758 c 0,-55.0197 -44.6,-99.6252 -99.62,-99.6252 -55.03,0 -99.63,44.6055 -99.63,99.6252 0,55.023 44.6,99.629 99.63,99.629 55.01,0 99.61,-44.594 99.62,-99.606"
                 style="fill:#aa4400;fill-opacity:1;fill-rule:nonzero;stroke:none"
                 id="path3083"
                 inkscape:connector-curvature="0" /><path
                 d="m 2744.49,130.758 c 0,-55.0197 -44.6,-99.6252 -99.62,-99.6252 -55.03,0 -99.63,44.6055 -99.63,99.6252 0,55.023 44.6,99.629 99.63,99.629 55.01,0 99.61,-44.594 99.62,-99.606"
                 style="fill:none;stroke:#000000;stroke-width:62.26649857;stroke-linecap:butt;stroke-linejoin:miter;stroke-miterlimit:10;stroke-opacity:0;stroke-dasharray:none"
                 id="path3085"
                 inkscape:connector-curvature="0" /><path
                 d="m 740.23,738.367 1293.6,0 0,1293.6 -1293.6,0 0,-1293.6 z"
                 style="fill:none;stroke:#37abc8;stroke-width:93.39969635;stroke-linecap:butt;stroke-linejoin:miter;stroke-miterlimit:10;stroke-opacity:1;stroke-dasharray:none"
                 id="path3087"
                 inkscape:connector-curvature="0" /><path
                 d="m 2133.77,2035.25 c 0,-55.03 -44.61,-99.63 -99.63,-99.63 -55.02,0 -99.62,44.6 -99.62,99.63 0,55.02 44.6,99.62 99.62,99.62 55.02,0 99.63,-44.6 99.63,-99.62"
                 style="fill:#0044aa;fill-opacity:1;fill-rule:nonzero;stroke:none"
                 id="path3089"
                 inkscape:connector-curvature="0" /><path
                 d="m 2133.77,2035.25 c 0,-55.03 -44.61,-99.63 -99.63,-99.63 -55.02,0 -99.62,44.6 -99.62,99.63 0,55.02 44.6,99.62 99.62,99.62 55.02,0 99.63,-44.6 99.63,-99.62 z"
                 style="fill:none;stroke:#000000;stroke-width:93.39969635;stroke-linecap:butt;stroke-linejoin:miter;stroke-miterlimit:10;stroke-opacity:0;stroke-dasharray:none"
                 id="path3091"
                 inkscape:connector-curvature="0" /><path
                 d="m 841.113,2035.25 c 0,-55.03 -44.605,-99.63 -99.625,-99.63 -55.023,0 -99.629,44.6 -99.629,99.63 0,55.02 44.606,99.62 99.629,99.62 55.016,0 99.617,-44.6 99.625,-99.62"
                 style="fill:#0044aa;fill-opacity:1;fill-rule:nonzero;stroke:none"
                 id="path3093"
                 inkscape:connector-curvature="0" /><path
                 d="m 841.113,2035.25 c 0,-55.03 -44.605,-99.63 -99.625,-99.63 -55.023,0 -99.629,44.6 -99.629,99.63 0,55.02 44.606,99.62 99.629,99.62 55.016,0 99.617,-44.6 99.625,-99.62"
                 style="fill:none;stroke:#000000;stroke-width:93.39969635;stroke-linecap:butt;stroke-linejoin:miter;stroke-miterlimit:10;stroke-opacity:0;stroke-dasharray:none"
                 id="path3095"
                 inkscape:connector-curvature="0" /><path
                 d="m 838.625,740.102 c 0,-55.024 -44.605,-99.625 -99.629,-99.625 -55.019,0 -99.625,44.601 -99.625,99.625 0,55.023 44.606,99.625 99.625,99.625 55.02,0 99.621,-44.598 99.629,-99.614"
                 style="fill:#0044aa;fill-opacity:1;fill-rule:nonzero;stroke:none"
                 id="path3097"
                 inkscape:connector-curvature="0" /><path
                 d="m 838.625,740.102 c 0,-55.024 -44.605,-99.625 -99.629,-99.625 -55.019,0 -99.625,44.601 -99.625,99.625 0,55.023 44.606,99.625 99.625,99.625 55.02,0 99.621,-44.598 99.629,-99.614"
                 style="fill:none;stroke:#000000;stroke-width:93.39969635;stroke-linecap:butt;stroke-linejoin:miter;stroke-miterlimit:10;stroke-opacity:0;stroke-dasharray:none"
                 id="path3099"
                 inkscape:connector-curvature="0" /><path
                 d="m 2133.77,741.84 c 0,-55.02 -44.61,-99.625 -99.63,-99.625 -55.02,0 -99.62,44.605 -99.62,99.625 0,55.023 44.6,99.629 99.62,99.629 55.02,0 99.62,-44.598 99.63,-99.617"
                 style="fill:#0044aa;fill-opacity:1;fill-rule:nonzero;stroke:none"
                 id="path3101"
                 inkscape:connector-curvature="0" /><path
                 d="m 2133.77,741.84 c 0,-55.02 -44.61,-99.625 -99.63,-99.625 -55.02,0 -99.62,44.605 -99.62,99.625 0,55.023 44.6,99.629 99.62,99.629 55.02,0 99.62,-44.598 99.63,-99.617"
                 style="fill:none;stroke:#000000;stroke-width:93.39969635;stroke-linecap:butt;stroke-linejoin:miter;stroke-miterlimit:10;stroke-opacity:0;stroke-dasharray:none"
                 id="path3103"
                 inkscape:connector-curvature="0" /><path
                 d="m 2053.3,2057.09 497.46,498.61"
                 style="fill:none;stroke:#000000;stroke-width:23.1644001;stroke-linecap:butt;stroke-linejoin:miter;stroke-miterlimit:10;stroke-opacity:1;stroke-dasharray:none"
                 id="path3105"
                 inkscape:connector-curvature="0" /><path
                 d="m 2626.28,2631.4 -47.62,-178.92 -131.19,130.88 178.81,48.04"
                 style="fill:#000000;fill-opacity:1;fill-rule:nonzero;stroke:none"
                 id="path3107"
                 inkscape:connector-curvature="0" /><path
                 d="m 2626.28,2631.4 -47.62,-178.92 -131.19,130.88 178.81,48.04 z"
                 style="fill:none;stroke:#000000;stroke-width:23.1644001;stroke-linecap:butt;stroke-linejoin:miter;stroke-miterlimit:10;stroke-opacity:1;stroke-dasharray:none"
                 id="path3109"
                 inkscape:connector-curvature="0" /><path
                 d="m 2031.76,2035.49 534.86,536.12"
                 style="fill:none;stroke:#000000;stroke-width:74.71980286;stroke-linecap:butt;stroke-linejoin:miter;stroke-miterlimit:10;stroke-opacity:1;stroke-dasharray:none"
                 id="path3111"
                 inkscape:connector-curvature="0" /></g></g></g></g></g><text
       xml:space="preserve"
       style="font-size:24px;font-style:normal;font-variant:normal;font-weight:500;font-stretch:normal;line-height:125%;letter-spacing:0px;word-spacing:0px;fill:#000000;fill-opacity:1;stroke:none;font-family:CMU Serif;-inkscape-font-specification:CMU Serif Medium Italic"
       x="208.92273"
       y="-234.67259"
       id="text3113"
       sodipodi:linespacing="125%"
       transform="scale(1,-1)"><tspan
         sodipodi:role="line"
         x="208.92273"
         y="-234.67259"
         id="tspan3117"
         style="font-style:italic;font-variant:normal;font-weight:500;font-stretch:normal;font-family:CMU Serif;-inkscape-font-specification:CMU Serif Medium Italic">v</tspan></text>
<text
       xml:space="preserve"
       style="font-size:24px;font-style:normal;font-variant:normal;font-weight:500;font-stretch:normal;line-height:125%;letter-spacing:0px;word-spacing:0px;fill:#000000;fill-opacity:1;stroke:none;font-family:CMU Serif;-inkscape-font-specification:CMU Serif Medium"
       x="178.42377"
       y="-179.70775"
       id="text3113-4"
       sodipodi:linespacing="125%"
       transform="scale(1,-1)"><tspan
         sodipodi:role="line"
         x="178.42377"
         y="-179.70775"
         id="tspan3117-0"
         style="font-style:normal;font-variant:normal;font-weight:bold;font-stretch:normal;font-family:CMU Serif;-inkscape-font-specification:CMU Serif Bold" /></text>
<text
       xml:space="preserve"
       style="font-size:24px;font-style:italic;font-variant:normal;font-weight:500;font-stretch:normal;line-height:125%;letter-spacing:0px;word-spacing:0px;fill:#000000;fill-opacity:1;stroke:none;font-family:CMU Classical Serif;-inkscape-font-specification:CMU Serif Medium Italic"
       x="273.5553"
       y="-280.35764"
       id="text3170"
       sodipodi:linespacing="125%"
       transform="scale(1,-1)"><tspan
         sodipodi:role="line"
         id="tspan3172"
         x="273.5553"
         y="-280.35764"
         style="font-size:12.80000019000000044px;font-style:italic;font-variant:normal;font-weight:500;font-stretch:normal;font-family:CMU Serif;-inkscape-font-specification:CMU Serif Medium Italic">inf</tspan></text>
<text
       transform="scale(1,-1)"
       sodipodi:linespacing="125%"
       id="text3234"
       y="-280.65659"
       x="261.64285"
       style="font-size:24px;font-style:normal;font-variant:normal;font-weight:500;font-stretch:normal;line-height:125%;letter-spacing:0px;word-spacing:0px;fill:#000000;fill-opacity:1;stroke:none;font-family:CMU Serif;-inkscape-font-specification:CMU Serif Medium Italic"
       xml:space="preserve"><tspan
         style="font-style:italic;font-variant:normal;font-weight:500;font-stretch:normal;font-family:CMU Serif;-inkscape-font-specification:CMU Serif Medium Italic"
         id="tspan3236"
         y="-280.65659"
         x="261.64285"
         sodipodi:role="line">v</tspan></text>
<text
       transform="scale(1,-1)"
       sodipodi:linespacing="125%"
       id="text3238"
       y="-184.35764"
       x="177.5553"
       style="font-size:24px;font-style:italic;font-variant:normal;font-weight:500;font-stretch:normal;line-height:125%;letter-spacing:0px;word-spacing:0px;fill:#000000;fill-opacity:1;stroke:none;font-family:CMU Classical Serif;-inkscape-font-specification:CMU Serif Medium Italic"
       xml:space="preserve"><tspan
         style="font-size:12.80000019px;font-style:italic;font-variant:normal;font-weight:500;font-stretch:normal;font-family:CMU Serif;-inkscape-font-specification:CMU Serif Medium Italic"
         y="-184.35764"
         x="177.5553"
         sodipodi:role="line"
         id="tspan3246">ctrl</tspan></text>
<text
       xml:space="preserve"
       style="font-size:24px;font-style:normal;font-variant:normal;font-weight:500;font-stretch:normal;line-height:125%;letter-spacing:0px;word-spacing:0px;fill:#000000;fill-opacity:1;stroke:none;font-family:CMU Serif;-inkscape-font-specification:CMU Serif Medium Italic"
       x="165.64285"
       y="-184.65659"
       id="text3242"
       sodipodi:linespacing="125%"
       transform="scale(1,-1)"><tspan
         sodipodi:role="line"
         x="165.64285"
         y="-184.65659"
         id="tspan3244"
         style="font-style:italic;font-variant:normal;font-weight:500;font-stretch:normal;font-family:CMU Serif;-inkscape-font-specification:CMU Serif Medium Italic">v</tspan></text>
</g></svg>